<svg width="18" height="18" fill="none" xmlns="http://www.w3.org/2000/svg"><path d="M17.896 3.902a.575.575 0 00-.449-.251L6.282 3.16a.58.58 0 00-.602.562.583.583 0 00.552.612l10.41.456-2.047 6.496H5.487L3.84 2.174a.585.585 0 00-.357-.441L.79.656a.575.575 0 00-.75.332.591.591 0 00.326.762l2.397.957 1.674 9.273a.58.58 0 00.568.482h.278l-.634 1.792a.496.496 0 00.06.447c.09.13.236.208.393.208h.445a1.769 1.769 0 00-.445 1.175c0 .972.777 1.762 1.732 1.762.956 0 1.733-.79 1.733-1.762 0-.452-.17-.863-.445-1.175H11.9a1.768 1.768 0 00-.445 1.175c0 .972.777 1.762 1.732 1.762.956 0 1.733-.79 1.733-1.762 0-.452-.17-.863-.445-1.175h.541c.266 0 .481-.22.481-.49s-.215-.489-.481-.489h-9.23l.52-1.469h8.71a.578.578 0 00.55-.408l2.406-7.636a.595.595 0 00-.076-.515zM6.834 16.867a.778.778 0 01-.77-.783c0-.432.346-.783.77-.783.425 0 .77.351.77.783a.777.777 0 01-.77.783zm6.353 0a.778.778 0 01-.77-.783c0-.432.345-.783.77-.783.425 0 .77.351.77.783a.777.777 0 01-.77.783z" fill="#1B1A17"/></svg>