<svg id="Layer_1" data-name="Layer 1" xmlns="http://www.w3.org/2000/svg" viewBox="0 0 200 200"><defs><style>.cls-1{fill:#231f20}</style></defs><path class="cls-1" d="M170.69 175.69H29.31a5 5 0 010-10h141.38a5 5 0 010 10z"/><path class="cls-1" d="M142 175.45a5 5 0 01-5-5V70H63v100.15a5 5 0 01-10 0V65a5 5 0 015-5h84a5 5 0 015 5v105.45a5 5 0 01-5 5z"/><path class="cls-1" d="M141.71 70a5 5 0 01-3.94-8.06L145 52.6V51H55v1.6l7.23 9.34a5 5 0 11-7.9 6.12l-8.28-10.69a5 5 0 01-1-3.06V46a5 5 0 015-5H150a5 5 0 015 5v8.31a5 5 0 01-1 3.06l-8.28 10.69a5 5 0 01-4.01 1.94zM78.28 175.45a5 5 0 01-5-5v-83.1a5 5 0 0110 0v83.1a5 5 0 01-5 5zm21.72 0a5 5 0 01-5-5v-83.1a5 5 0 0110 0v83.1a5 5 0 01-5 5zm21.72 0a5 5 0 01-5-5v-83.1a5 5 0 0110 0v83.1a5 5 0 01-5 5z"/><path class="cls-1" d="M112.45 51a5 5 0 01-5-5V34.31h-14.9V46a5 5 0 11-10 0V29.31a5 5 0 015-5h24.9a5 5 0 015 5V46a5 5 0 01-5 5z"/></svg>