<svg id="Layer_1" data-name="Layer 1" xmlns="http://www.w3.org/2000/svg" viewBox="0 0 200 200"><defs><style>.cls-1{fill:#231f20;}</style></defs><title>Wondicon - UI (Free)</title><path class="cls-1" d="M170.69,175.69H29.31a5,5,0,0,1,0-10H170.69a5,5,0,0,1,0,10Z"/><path class="cls-1" d="M142,175.45a5,5,0,0,1-5-5V70H63V170.15a5,5,0,0,1-10,0V65a5,5,0,0,1,5-5h84a5,5,0,0,1,5,5V170.45A5,5,0,0,1,142,175.45Z"/><path class="cls-1" d="M141.71,70a5,5,0,0,1-3.94-8.06L145,52.6V51H55v1.6l7.23,9.34a5,5,0,1,1-7.9,6.12L46.05,57.37a5,5,0,0,1-1-3.06V46a5,5,0,0,1,5-5H150a5,5,0,0,1,5,5v8.31A5,5,0,0,1,154,57.37l-8.28,10.69A5,5,0,0,1,141.71,70Z"/><path class="cls-1" d="M78.28,175.45a5,5,0,0,1-5-5V87.35a5,5,0,0,1,10,0v83.1A5,5,0,0,1,78.28,175.45Z"/><path class="cls-1" d="M100,175.45a5,5,0,0,1-5-5V87.35a5,5,0,0,1,10,0v83.1A5,5,0,0,1,100,175.45Z"/><path class="cls-1" d="M121.72,175.45a5,5,0,0,1-5-5V87.35a5,5,0,0,1,10,0v83.1A5,5,0,0,1,121.72,175.45Z"/><path class="cls-1" d="M112.45,51a5,5,0,0,1-5-5V34.31H92.55V46a5,5,0,1,1-10,0V29.31a5,5,0,0,1,5-5h24.9a5,5,0,0,1,5,5V46A5,5,0,0,1,112.45,51Z"/></svg>